<?xml version="1.0" encoding="utf-8"?>
<!-- Generator: Adobe Illustrator 27.8.0, SVG Export Plug-In . SVG Version: 6.00 Build 0)  -->
<svg version="1.1" id="Calque_1" xmlns="http://www.w3.org/2000/svg" xmlns:xlink="http://www.w3.org/1999/xlink" x="0px" y="0px"
	 viewBox="0 0 41.5 52.6" style="enable-background:new 0 0 41.5 52.6;" xml:space="preserve">
<style type="text/css">
	.st0{fill:#FF6F61;}
	.st1{fill:#FFFFFF;stroke:#FF6F61;stroke-width:1.5;stroke-miterlimit:10;}
</style>
<path class="st0" d="M34.8,31.7c0.8-2.4,0.5-5-0.8-7.2c-1.9-3.3-5.8-5.1-9.6-4.3c-3.3-3.7-8.9-4-12.6-0.7c-1.2,1-2,2.4-2.5,3.9
	C7,24,4.8,25.5,3.6,27.7c-1.9,3.3-1.5,7.6,1.1,10.4c-0.8,2.4-0.5,5,0.7,7.2c1.9,3.3,5.8,5.1,9.6,4.3c1.7,1.9,4.1,3,6.6,3
	c3.9,0,7.3-2.5,8.5-6.2c2.5-0.5,4.6-2.1,5.9-4.3C37.9,38.8,37.4,34.6,34.8,31.7L34.8,31.7z M21.6,50.3c-1.5,0-3-0.5-4.2-1.5l0.2-0.1
	l7-4c0.4-0.2,0.6-0.6,0.6-1v-9.9l3,1.7c0,0,0.1,0,0.1,0.1v8.2C28.2,47.3,25.2,50.2,21.6,50.3z M7.4,44.2c-0.8-1.3-1-2.9-0.8-4.4
	l0.2,0.1l7,4c0.4,0.2,0.8,0.2,1.1,0l8.6-4.9v3.4c0,0,0,0.1-0.1,0.1l-7.1,4.1C13.3,48.4,9.2,47.3,7.4,44.2L7.4,44.2z M5.6,28.9
	c0.8-1.3,2-2.4,3.5-2.9v8.3c0,0.4,0.2,0.8,0.6,1l8.5,4.9l-3,1.7c0,0-0.1,0-0.1,0L8,37.9C4.8,36.1,3.7,32,5.6,28.9L5.6,28.9L5.6,28.9
	z M29.9,34.6l-8.6-5l3-1.7c0,0,0.1,0,0.1,0l7.1,4.1c3.1,1.8,4.2,5.9,2.4,9c-0.8,1.3-2,2.3-3.4,2.9v-8.3
	C30.5,35.1,30.3,34.8,29.9,34.6L29.9,34.6z M32.9,30.1L32.7,30l-7-4.1c-0.4-0.2-0.8-0.2-1.2,0l-8.6,4.9v-3.4c0,0,0-0.1,0-0.1
	l7.1-4.1c3.2-1.8,7.2-0.7,9,2.4C32.9,27,33.1,28.6,32.9,30.1L32.9,30.1z M14.3,36.2l-3-1.7c0,0-0.1,0-0.1-0.1v-8.2
	c0-3.7,3-6.6,6.6-6.6c1.5,0,3,0.5,4.2,1.5l-0.2,0.1l-7,4c-0.4,0.2-0.6,0.6-0.6,1L14.3,36.2z M15.9,32.7l3.8-2.2l3.8,2.2v4.4
	l-3.8,2.2l-3.8-2.2L15.9,32.7z"/>
<g>
	<g>
		<path class="st1" d="M28.7,0.8c-3,0-5.8,0.9-7.9,2.4c-2.1-1.5-4.9-2.4-7.9-2.4C6.1,0.8,0.8,5,0.8,10.3c0,5.3,5.4,9.5,12.1,9.5
			c3,0,5.8-0.9,7.9-2.4c2.1,1.5,4.9,2.4,7.9,2.4c6.7,0,12.1-4.3,12.1-9.5C40.8,5,35.4,0.8,28.7,0.8z"/>
		<g>
			<path class="st0" d="M28.7,0.8c-3,0.8-5.7,1.7-8.3,3.4c-2.6,1.7-5,3.9-7.9,5c0,0-0.1-0.1-0.1-0.1c4.2-2.1,6.9-6.7,11.5-8.3
				c1.6-0.5,3.3-0.5,4.8-0.1C28.7,0.7,28.7,0.8,28.7,0.8L28.7,0.8z"/>
		</g>
		<g>
			<path class="st0" d="M2.8,10.3c-1-5.2,5.5-8.8,10-7.5c-1.2,0.3-2.2,0.6-3.3,1C6.5,5,3.7,6.8,2.8,10.3L2.8,10.3z"/>
		</g>
	</g>
	<g>
		<g>
			<path class="st1" d="M9.9,16.1c0-0.9,0.6-1.6,1.4-1.8c1.5-0.4,4.4-0.8,9.5-0.8c5.1,0,8,0.4,9.5,0.8c0.9,0.2,1.4,1,1.4,1.8V23H9.9
				V16.1z"/>
			<line class="st1" x1="31.6" y1="20.9" x2="9.7" y2="20.9"/>
		</g>
		<line class="st1" x1="31.8" y1="18.7" x2="9.9" y2="18.7"/>
	</g>
</g>
</svg>
