<?xml version="1.0" encoding="utf-8"?>
<!-- Generator: Adobe Illustrator 27.8.0, SVG Export Plug-In . SVG Version: 6.00 Build 0)  -->
<svg version="1.1" id="Calque_1" xmlns="http://www.w3.org/2000/svg" xmlns:xlink="http://www.w3.org/1999/xlink" x="0px" y="0px"
	 viewBox="0 0 516.3 692" style="enable-background:new 0 0 516.3 692;" xml:space="preserve">
<style type="text/css">
	.st0{fill:#FFFFFF;}
	.st1{fill:#FF6F61;}
	.st2{fill:#FFFFFF;stroke:#FF6F61;stroke-width:20;stroke-miterlimit:10;}
	.st3{fill:none;stroke:#FF6F61;stroke-width:20;stroke-miterlimit:10;}
</style>
<g id="Calque_3">
</g>
<g id="Calque_2">
	<polygon class="st0" points="129,289.5 159.6,260.5 385,286 417,314 442,363 431,398.3 423.2,424 447.8,444.7 459,503 447.8,532 
		438,557 419,567.9 395.4,590 372,590 359.5,624.5 338,650 297.8,675 259.2,675 215.1,669 184.2,644 135.5,637 91,624.5 70.4,585 
		58,543 58,511.2 58,494 32.9,457.1 32.9,416 32.9,378 56,346 96.3,319 120.9,312 	"/>
</g>
<path class="st1" d="M448,414.4c10.6-32,6.9-67-10.1-96.2c-25.6-44.6-77.1-67.6-127.5-56.8c-43.8-48.8-118.9-52.8-167.7-8.9
	c-15.5,13.9-27,31.7-33.5,51.4c-33,6.8-61.6,27.5-78.3,56.8C5.1,405.3,11,461.5,45.5,499.7c-10.7,32-7,67,10,96.2
	c25.7,44.6,77.2,67.6,127.6,56.8c22.4,25.2,54.6,39.6,88.3,39.4c51.6,0,97.3-33.2,113-82.3c33-6.8,61.6-27.5,78.3-56.8
	C488.3,508.4,482.3,452.6,448,414.4L448,414.4z M271.4,661.3c-20.6,0-40.5-7.2-56.3-20.4l2.8-1.6l93.6-54c4.7-2.8,7.7-7.8,7.7-13.3
	V440.1l39.6,22.9c0.4,0.2,0.7,0.6,0.7,1v109.3C359.3,621.8,319.9,661.2,271.4,661.3z M82.2,580.5c-10.3-17.8-14-38.7-10.5-59
	l2.8,1.7l93.7,54c4.7,2.8,10.6,2.8,15.3,0l114.4-66v45.7c0,0.5-0.3,0.9-0.7,1.2l-94.8,54.7C160.3,637,106.5,622.6,82.2,580.5
	L82.2,580.5z M57.6,376.7c10.4-17.9,26.8-31.6,46.3-38.6v111.2c-0.1,5.5,2.8,10.5,7.6,13.2l113.8,65.7l-39.6,22.9
	c-0.4,0.2-1,0.2-1.4,0l-94.6-54.6c-42-24.4-56.4-78.1-32.2-120.2v0.4H57.6z M382.5,452.2l-114.2-66.3l39.5-22.8c0.4-0.2,1-0.2,1.4,0
	l94.6,54.7c42,24.2,56.5,78.1,32.2,120.2c-10.2,17.7-26.3,31.3-45.5,38.5V465.3C390.3,459.8,387.3,454.9,382.5,452.2L382.5,452.2z
	 M421.9,393l-2.8-1.7l-93.5-54.5c-4.7-2.8-10.6-2.8-15.4,0l-114.3,66v-45.7c0-0.5,0.2-0.9,0.6-1.2l94.6-54.6
	c42.2-24.3,96-9.8,120.3,32.4c10.3,17.8,14,38.6,10.5,58.9L421.9,393z M174.4,474l-39.6-22.8c-0.4-0.2-0.7-0.6-0.7-1.1v-109
	c0.1-48.7,39.6-88,88.2-88c20.5,0,40.4,7.2,56.2,20.4l-2.8,1.6l-93.6,54c-4.7,2.8-7.7,7.8-7.7,13.3L174.4,474z M195.9,427.7
	l50.9-29.4l51,29.4v58.7L247,515.8l-51-29.4L195.9,427.7z"/>
<g>
	<g>
		<path class="st2" d="M356.8,10c-37.8,0-72.3,11.2-98.6,29.5C231.8,21.2,197.4,10,159.5,10C77,10,10,63,10,128.4
			s67,118.4,149.5,118.4c37.8,0,72.3-11.2,98.6-29.5c26.3,18.3,60.8,29.5,98.6,29.5c82.6,0,149.5-53,149.5-118.4
			C506.3,63,439.4,10,356.8,10z"/>
		<g>
			<path class="st1" d="M356.8,11c-18.5,5.5-36.3,10.2-53.7,17.7C286.2,36,269.3,43,253.8,53.4c-26,17.4-50.2,38.5-78.4,52.7
				l-6.6,3.2l-6.8,2.9l-6.9,2.6l-0.8-1.8c34.5-18.4,59.9-48.1,90-72.4C270.1,19.2,292.2,6,326.8,5.2c10.2-0.1,20.3,0.9,30,3.8V11
				L356.8,11z"/>
		</g>
		<g>
			<path class="st1" d="M34.9,128.4c-4.3-15-1.3-31.1,5.8-44.9C59,49,99.5,30,137.5,31.4c7.5,0.3,14.9,1.3,22.1,3.5
				c-6.9,2.2-13.9,4-20.8,6.3C94.1,55,48.1,80.6,34.9,128.4L34.9,128.4z"/>
		</g>
	</g>
	<g>
		<g>
			<path class="st2" d="M123.1,200.6c0-10.8,7.4-20.3,17.9-22.8c18.9-4.4,55-9.8,118.2-9.8s99.3,5.4,118.2,9.8
				c10.6,2.4,17.9,11.9,17.9,22.8V286H123.1V200.6z"/>
			<line class="st3" x1="393.2" y1="260.5" x2="120.9" y2="260.5"/>
		</g>
		<line class="st3" x1="395.4" y1="232.8" x2="123.1" y2="232.8"/>
	</g>
</g>
</svg>
