<svg width="30" height="27" viewBox="0 0 30 27" fill="none" xmlns="http://www.w3.org/2000/svg">
<path d="M21.9396 5.58991e-05C19.8043 5.58991e-05 17.7758 0.854157 16.2812 2.34883L15 3.62999L13.8256 2.4556C10.7295 -0.747283 5.60489 -0.747282 2.50877 2.34883L2.40201 2.4556C1.6409 3.21043 1.03678 4.1085 0.62452 5.098C0.212255 6.0875 0 7.14883 0 8.22078C0 9.29272 0.212255 10.3541 0.62452 11.3436C1.03678 12.3331 1.6409 13.2311 2.40201 13.986L15 26.6907L27.598 13.986C28.3591 13.2311 28.9632 12.3331 29.3755 11.3436C29.7877 10.3541 30 9.29272 30 8.22078C30 7.14883 29.7877 6.0875 29.3755 5.098C28.9632 4.1085 28.3591 3.21043 27.598 2.4556C26.8758 1.67741 26.0001 1.05742 25.0261 0.634773C24.0522 0.212127 23.0012 -0.00399463 21.9396 5.58991e-05Z" fill="#FF6F61"/>
</svg>
