<svg width="22" height="19" viewBox="0 0 22 19" fill="none" xmlns="http://www.w3.org/2000/svg">
<path d="M16.3377 3.92688e-05C14.8377 3.92688e-05 13.4127 0.600039 12.3627 1.65004L11.4627 2.55004L10.6377 1.72504C8.46269 -0.524961 4.86269 -0.524961 2.68769 1.65004L2.61269 1.72504C2.07801 2.25531 1.65363 2.88619 1.36401 3.58131C1.0744 4.27642 0.925293 5.022 0.925293 5.77504C0.925293 6.52807 1.0744 7.27365 1.36401 7.96877C1.65363 8.66388 2.07801 9.29477 2.61269 9.82504L11.4627 18.75L20.3127 9.82504C20.8474 9.29477 21.2717 8.66388 21.5614 7.96877C21.851 7.27365 22.0001 6.52807 22.0001 5.77504C22.0001 5.022 21.851 4.27642 21.5614 3.58131C21.2717 2.88619 20.8474 2.25531 20.3127 1.72504C19.8053 1.17837 19.1902 0.74283 18.506 0.445924C17.8218 0.149018 17.0835 -0.0028062 16.3377 3.92688e-05Z" fill="#FF6F61"/>
</svg>
