<svg width="22" height="20" viewBox="0 0 22 20" fill="none" xmlns="http://www.w3.org/2000/svg">
<path d="M15.9787 1.5625C16.5474 1.56212 17.1105 1.67525 17.6349 1.89526C18.1594 2.11526 18.6346 2.43773 19.0328 2.84375C19.8535 3.67686 20.3135 4.79934 20.3135 5.96875C20.3135 7.13816 19.8535 8.26064 19.0328 9.09375L10.9391 17.2885L2.84534 9.09375C2.0247 8.26064 1.56471 7.13816 1.56471 5.96875C1.56471 4.79934 2.0247 3.67686 2.84534 2.84375C3.24385 2.43793 3.71923 2.11559 4.24371 1.89554C4.76819 1.6755 5.33126 1.56217 5.90003 1.56217C6.4688 1.56217 7.03187 1.6755 7.55635 1.89554C8.08083 2.11559 8.55621 2.43793 8.95472 2.84375L10.9391 4.875L12.9162 2.85938C13.3132 2.44843 13.7891 2.12177 14.3153 1.89894C14.8415 1.67611 15.4072 1.56168 15.9787 1.5625ZM15.9787 2.28551e-06C15.2018 -0.000685249 14.4326 0.153753 13.7162 0.45426C12.9999 0.754767 12.3507 1.19529 11.8068 1.75L10.9391 2.625L10.0724 1.75C9.52782 1.19638 8.87847 0.756692 8.16222 0.456561C7.44597 0.15643 6.67714 0.00186071 5.90055 0.00186071C5.12396 0.00186071 4.35514 0.15643 3.63888 0.456561C2.92263 0.756692 2.27328 1.19638 1.72868 1.75C0.620768 2.87783 0 4.3956 0 5.97656C0 7.55753 0.620768 9.07529 1.72868 10.2031L10.9391 19.5313L20.1505 10.2031C21.2585 9.07529 21.8792 7.55753 21.8792 5.97656C21.8792 4.3956 21.2585 2.87783 20.1505 1.75C19.6061 1.19604 18.9568 0.756012 18.2406 0.45556C17.5243 0.155107 16.7554 0.000244865 15.9787 2.28551e-06Z" fill="#FF6F61"/>
</svg>
