<svg width="38" height="38" viewBox="0 0 38 38" fill="none" xmlns="http://www.w3.org/2000/svg">
<g id="openai-svgrepo-com 1" clip-path="url(#clip0_40_836)">
<path id="Vector" d="M35.2797 15.55C35.7046 14.2705 35.8515 12.915 35.7107 11.5742C35.5699 10.2333 35.1446 8.93795 34.4632 7.7746C33.453 6.01619 31.9104 4.62402 30.058 3.79879C28.2056 2.97356 26.1389 2.75791 24.156 3.18294C23.0295 1.92983 21.593 0.995199 19.991 0.472922C18.3889 -0.0493551 16.6776 -0.140893 15.029 0.207502C13.3804 0.555897 11.8524 1.33196 10.5986 2.45774C9.34486 3.58353 8.40937 5.0194 7.88614 6.62114C6.56511 6.89203 5.31711 7.44176 4.22556 8.2336C3.134 9.02543 2.22402 10.0411 1.55645 11.2128C0.53525 12.9683 0.0987979 15.003 0.310189 17.0229C0.521579 19.0428 1.36986 20.9431 2.73239 22.4491C2.30594 23.728 2.15752 25.0832 2.29705 26.4241C2.43658 27.765 2.86085 29.0607 3.54147 30.2244C4.55297 31.9834 6.09684 33.3759 7.95059 34.2011C9.80435 35.0264 11.8722 35.2417 13.8563 34.8162C14.7513 35.8241 15.851 36.6294 17.082 37.1784C18.313 37.7274 19.647 38.0075 20.9949 38C23.0273 38.0018 25.0077 37.3578 26.6503 36.1609C28.2929 34.964 29.5127 33.276 30.1336 31.3408C31.4544 31.0694 32.7022 30.5195 33.7937 29.7277C34.8852 28.9358 35.7953 27.9204 36.4632 26.7489C37.4724 24.996 37.9013 22.9689 37.6887 20.9575C37.4762 18.9461 36.633 17.0533 35.2797 15.55ZM20.9949 35.5129C19.3303 35.5155 17.718 34.9321 16.4406 33.8649L16.6652 33.7376L24.2309 29.3705C24.4192 29.26 24.5755 29.1025 24.6845 28.9134C24.7935 28.7243 24.8515 28.51 24.8527 28.2917V17.625L28.051 19.4753C28.0668 19.4833 28.0805 19.4949 28.091 19.5092C28.1014 19.5235 28.1083 19.5401 28.1112 19.5576V28.3967C28.1071 30.2828 27.3561 32.0905 26.0224 33.4242C24.6887 34.7579 22.881 35.5089 20.9949 35.5129ZM5.69876 28.981C4.86399 27.5395 4.56426 25.8499 4.85231 24.2093L5.07715 24.3442L12.6502 28.7113C12.8376 28.8213 13.0509 28.8793 13.2682 28.8793C13.4855 28.8793 13.6988 28.8213 13.8862 28.7113L23.1373 23.3779V27.0708C23.1364 27.09 23.1312 27.1087 23.1221 27.1255C23.113 27.1424 23.1002 27.157 23.0847 27.1682L15.4217 31.5878C13.7863 32.5299 11.8439 32.7845 10.021 32.2958C8.19801 31.807 6.64351 30.6148 5.69876 28.981ZM3.7063 12.5013C4.54686 11.0506 5.87361 9.94413 7.45167 9.37773V18.3666C7.44882 18.5838 7.50431 18.7977 7.61234 18.9861C7.72037 19.1745 7.87699 19.3305 8.06585 19.4377L17.272 24.7487L14.0735 26.5988C14.0562 26.608 14.0369 26.6128 14.0173 26.6128C13.9977 26.6128 13.9784 26.608 13.9611 26.5988L6.3131 22.1869C4.68078 21.2407 3.48993 19.6862 3.00134 17.8639C2.51275 16.0415 2.76624 14.0998 3.7063 12.464V12.5013ZM29.9838 18.6063L20.7477 13.243L23.9388 11.4C23.9561 11.3908 23.9754 11.386 23.995 11.386C24.0146 11.386 24.0339 11.3908 24.0512 11.4L31.6992 15.8195C32.8685 16.4943 33.8218 17.4877 34.4478 18.6839C35.0737 19.8801 35.3464 21.2297 35.2341 22.5751C35.1218 23.9205 34.6291 25.2062 33.8135 26.2821C32.9979 27.358 31.8931 28.1796 30.628 28.6512V19.6623C30.6214 19.4455 30.5585 19.2341 30.4455 19.049C30.3326 18.8638 30.1735 18.7114 29.9838 18.6063ZM33.1674 13.8198L32.9425 13.6849L25.3845 9.28035C25.196 9.16971 24.9813 9.11138 24.7627 9.11138C24.5441 9.11138 24.3295 9.16971 24.141 9.28035L14.8976 14.6136V10.9208C14.8956 10.9021 14.8988 10.8831 14.9067 10.866C14.9146 10.8488 14.927 10.8341 14.9426 10.8235L22.5906 6.41135C23.7627 5.73609 25.1029 5.40853 26.4544 5.46698C27.8059 5.52544 29.1128 5.9675 30.2223 6.74145C31.3318 7.5154 32.1979 8.58926 32.7195 9.83742C33.2411 11.0856 33.3965 12.4564 33.1675 13.7897L33.1674 13.8198ZM13.152 20.3664L9.95365 18.5237C9.93765 18.5141 9.92397 18.501 9.91357 18.4855C9.90317 18.47 9.89632 18.4524 9.89349 18.4339V9.61744C9.89525 8.26492 10.282 6.94084 11.0086 5.80002C11.7351 4.65921 12.7714 3.7488 13.9963 3.17524C15.2212 2.60168 16.584 2.38867 17.9255 2.56113C19.267 2.73358 20.5317 3.28437 21.5717 4.14909L21.3468 4.27654L13.7814 8.64338C13.5931 8.75381 13.4367 8.91133 13.3277 9.10045C13.2187 9.28958 13.1608 9.50381 13.1596 9.7221L13.152 20.3664ZM14.8899 16.6212L19.0097 14.2465L23.1373 16.6212V21.3702L19.0247 23.7447L14.8975 21.3702L14.8899 16.6212Z" fill="white"/>
</g>
<defs>
<clipPath id="clip0_40_836">
<rect width="38" height="38" fill="white"/>
</clipPath>
</defs>
</svg>
