<svg width="30" height="30" viewBox="0 0 30 30" fill="none" xmlns="http://www.w3.org/2000/svg">
<g id="openai-svgrepo-com 1" clip-path="url(#clip0_40_1417)">
<path id="Vector" d="M27.8524 12.2763C28.1879 11.2662 28.3039 10.1961 28.1927 9.13751C28.0816 8.07894 27.7458 7.05628 27.2078 6.13784C26.4103 4.74962 25.1925 3.65054 23.73 2.99904C22.2676 2.34754 20.636 2.1773 19.0706 2.51284C18.1812 1.52355 17.0472 0.785683 15.7824 0.373359C14.5176 -0.0389646 13.1666 -0.111231 11.865 0.163817C10.5635 0.438866 9.35721 1.05155 8.36738 1.94032C7.37756 2.8291 6.63901 3.96268 6.22593 5.22722C5.18301 5.44108 4.19775 5.87508 3.336 6.50021C2.47424 7.12534 1.75584 7.92721 1.2288 8.85222C0.422598 10.2381 0.0780305 11.8445 0.244918 13.4391C0.411805 15.0338 1.0815 16.534 2.15718 17.723C1.82051 18.7326 1.70333 19.8025 1.81349 20.8611C1.92365 21.9197 2.2586 22.9426 2.79593 23.8613C3.59448 25.2501 4.81333 26.3494 6.27682 27.0009C7.74031 27.6524 9.37285 27.8224 10.9392 27.4865C11.6458 28.2822 12.514 28.9179 13.4858 29.3514C14.4577 29.7848 15.5108 30.0059 16.5749 30C18.1795 30.0014 19.743 29.493 21.0398 28.5481C22.3366 27.6031 23.2995 26.2706 23.7897 24.7427C24.8325 24.5285 25.8176 24.0943 26.6793 23.4692C27.541 22.8441 28.2595 22.0424 28.7868 21.1176C29.5835 19.7337 29.9221 18.1334 29.7543 16.5454C29.5865 14.9574 28.9208 13.4631 27.8524 12.2763ZM16.5749 28.0365C15.2608 28.0385 13.9879 27.578 12.9794 26.7355L13.1568 26.635L19.1297 23.1872C19.2783 23.1 19.4018 22.9757 19.4878 22.8264C19.5739 22.677 19.6196 22.5079 19.6206 22.3356V13.9145L22.1456 15.3752C22.158 15.3815 22.1688 15.3907 22.1771 15.402C22.1854 15.4133 22.1908 15.4264 22.1931 15.4402V22.4185C22.1899 23.9075 21.597 25.3346 20.544 26.3875C19.4911 27.4404 18.064 28.0333 16.5749 28.0365ZM4.49905 22.8797C3.84002 21.7417 3.60339 20.4078 3.8308 19.1126L4.0083 19.2191L9.98706 22.6668C10.135 22.7536 10.3034 22.7994 10.4749 22.7994C10.6465 22.7994 10.8149 22.7536 10.9628 22.6668L18.2663 18.4562V21.3717C18.2656 21.3868 18.2615 21.4016 18.2543 21.4149C18.2472 21.4282 18.2371 21.4397 18.2248 21.4486L12.1751 24.9377C10.884 25.6815 9.35049 25.8825 7.91132 25.4966C6.47215 25.1108 5.24491 24.1696 4.49905 22.8797ZM2.92605 9.86947C3.58966 8.72418 4.6371 7.85063 5.88293 7.40347V14.5C5.88068 14.6714 5.92449 14.8403 6.00978 14.9891C6.09506 15.1378 6.21871 15.2609 6.36781 15.3456L13.6358 19.5385L11.1107 20.9991C11.097 21.0063 11.0818 21.0101 11.0663 21.0101C11.0508 21.0101 11.0356 21.0063 11.0219 20.9991L4.98406 17.516C3.69538 16.769 2.75524 15.5418 2.36951 14.1031C1.98378 12.6644 2.18391 11.1314 2.92605 9.83997V9.86947ZM23.6714 14.6892L16.3798 10.455L18.8991 8.99997C18.9127 8.99271 18.928 8.98892 18.9434 8.98892C18.9589 8.98892 18.9741 8.99271 18.9878 8.99997L25.0257 12.4891C25.9489 13.0218 26.7015 13.8061 27.1956 14.7505C27.6898 15.6948 27.9051 16.7603 27.8164 17.8225C27.7278 18.8846 27.3388 19.8996 26.6949 20.749C26.051 21.5984 25.1788 22.2471 24.1801 22.6193V15.5228C24.1748 15.3517 24.1252 15.1848 24.036 15.0387C23.9468 14.8925 23.8212 14.7721 23.6714 14.6892ZM26.1848 10.9103L26.0073 10.8038L20.0404 7.32659C19.8916 7.23925 19.7221 7.1932 19.5496 7.1932C19.377 7.1932 19.2075 7.23925 19.0587 7.32659L11.7613 11.5371V8.62172C11.7598 8.60689 11.7622 8.59193 11.7685 8.57839C11.7747 8.56486 11.7845 8.55327 11.7968 8.54484L17.8347 5.06159C18.7601 4.52849 19.8181 4.26989 20.8851 4.31604C21.9521 4.36219 22.9838 4.71118 23.8597 5.3222C24.7356 5.93321 25.4195 6.78099 25.8312 7.76638C26.243 8.75177 26.3657 9.83403 26.1849 10.8866L26.1848 10.9103ZM10.3832 16.0787L7.85818 14.624C7.84555 14.6164 7.83474 14.6061 7.82654 14.5938C7.81833 14.5816 7.81291 14.5677 7.81068 14.5531V7.59272C7.81207 6.52493 8.11741 5.47961 8.691 4.57897C9.26458 3.67832 10.0827 2.95958 11.0497 2.50677C12.0168 2.05396 13.0927 1.88579 14.1518 2.02194C15.2108 2.15809 16.2093 2.59292 17.0303 3.27559L16.8528 3.37622L10.8801 6.82372C10.7314 6.9109 10.608 7.03526 10.5219 7.18457C10.4359 7.33388 10.3901 7.50301 10.3892 7.67534L10.3832 16.0787ZM11.7552 13.122L15.0077 11.2472L18.2663 13.122V16.8712L15.0196 18.7458L11.7612 16.8712L11.7552 13.122Z" fill="#FF6F61"/>
</g>
<defs>
<clipPath id="clip0_40_1417">
<rect width="30" height="30" fill="white"/>
</clipPath>
</defs>
</svg>
