<svg width="18" height="18" viewBox="0 0 18 18" fill="none" xmlns="http://www.w3.org/2000/svg">
<path id="Vector" d="M17.7919 0.21695C17.6907 0.116385 17.5629 0.0467844 17.4235 0.0163182C17.2841 -0.014148 17.1389 -0.00421533 17.0049 0.0449501L0.504901 6.04495C0.362765 6.09901 0.240423 6.19501 0.154098 6.32021C0.0677733 6.4454 0.0215454 6.59388 0.0215454 6.74595C0.0215454 6.89802 0.0677733 7.0465 0.154098 7.17169C0.240423 7.29689 0.362765 7.39288 0.504901 7.44695L7.7049 10.327L10.5849 17.527C10.6389 17.6631 10.7316 17.7804 10.8516 17.8645C10.9716 17.9485 11.1135 17.9956 11.2599 18C11.4115 17.9968 11.5585 17.9479 11.6817 17.8595C11.8049 17.7711 11.8984 17.6475 11.9499 17.505L17.9499 1.00495C18.001 0.872146 18.0133 0.727533 17.9854 0.588C17.9574 0.448468 17.8903 0.319775 17.7919 0.21695ZM11.2599 15.1499L9.1669 9.89995L12.7599 6.30695L11.7019 5.24995L8.0799 8.87195L2.8599 6.74995L16.0069 2.00195L11.2599 15.1499Z" fill="#FF6F61"/>
</svg>
