<svg width="17" height="16" viewBox="0 0 17 16" fill="none" xmlns="http://www.w3.org/2000/svg">
<path d="M8.52001 2.5425L10.0725 5.68125L10.3313 6.24375L10.8938 6.3285L14.3588 6.82875L11.895 9.2475L11.4728 9.65775L11.5748 10.2203L12.165 13.6688L9.06526 12.0427L8.52001 11.8125L7.99726 12.0878L4.89751 13.6912L5.46001 10.2435L5.56126 9.681L5.14501 9.2475L2.65876 6.801L6.12376 6.3L6.68626 6.21525L6.94501 5.65275L8.52001 2.5425ZM8.52001 0L5.96026 5.18625L0.240005 6.0135L4.38001 10.0515L3.40126 15.75L8.52001 13.0613L13.6388 15.75L12.66 10.0515L16.8 6.01875L11.0798 5.18625L8.52001 0Z" fill="#FF6F61"/>
</svg>
