<svg width="37" height="35" viewBox="0 0 37 35" fill="none" xmlns="http://www.w3.org/2000/svg">
<path d="M18.6 5.65L22.0499 12.625L22.625 13.875L23.875 14.0633L31.575 15.175L26.1 20.55L25.1616 21.4617L25.3883 22.7117L26.7 30.375L19.8116 26.7617L18.6 26.25L17.4383 26.8617L10.55 30.425L11.8 22.7633L12.025 21.5133L11.1 20.55L5.57495 15.1133L13.275 14L14.525 13.8117L15.0999 12.5617L18.6 5.65ZM18.6 0L12.9116 11.525L0.199951 13.3633L9.39995 22.3367L7.22495 35L18.6 29.025L29.975 35L27.8 22.3367L37 13.375L24.2883 11.525L18.6 0Z" fill="#FF6F61"/>
</svg>
